<?xml version="1.0" standalone="no"?>
<!DOCTYPE svg PUBLIC "-//W3C//DTD SVG 20010904//EN"
 "http://www.w3.org/TR/2001/REC-SVG-20010904/DTD/svg10.dtd">
<svg version="1.0" xmlns="http://www.w3.org/2000/svg"
 width="50.000000pt" height="50.000000pt" viewBox="0 0 50.000000 50.000000"
 preserveAspectRatio="xMidYMid meet">

<g transform="translate(0.000000,50.000000) scale(0.100000,-0.100000)"
fill="#000000" stroke="none">
<path d="M130 416 c-19 -7 -45 -27 -57 -45 -21 -31 -53 -147 -53 -194 0 -29
33 -60 79 -76 45 -15 58 -14 65 4 4 10 -5 20 -29 29 -19 8 -35 20 -35 27 0 7
7 8 18 4 107 -46 157 -46 265 0 10 4 17 3 17 -4 0 -7 -16 -19 -35 -27 -24 -9
-33 -19 -29 -29 4 -8 11 -15 16 -15 30 0 90 26 110 47 21 23 22 26 10 95 -15
88 -43 151 -74 171 -29 20 -98 33 -98 19 0 -5 15 -13 34 -16 19 -4 40 -14 47
-23 13 -15 11 -16 -11 -9 -101 32 -139 32 -240 0 -22 -7 -24 -6 -11 9 7 9 28
19 47 23 19 3 34 10 34 15 0 12 -28 10 -70 -5z m78 -148 c17 -17 15 -43 -4
-59 -31 -26 -70 25 -44 56 15 18 32 19 48 3z m130 0 c17 -17 15 -43 -4 -59
-31 -26 -70 25 -44 56 15 18 32 19 48 3z"/>
</g>
</svg>
